<svg xmlns="http://www.w3.org/2000/svg" xmlns:xlink="http://www.w3.org/1999/xlink" viewBox="0,0,256,256" width="48px" height="48px"><g fill="#ffffff" fill-rule="nonzero" stroke="none" stroke-width="1" stroke-linecap="butt" stroke-linejoin="miter" stroke-miterlimit="10" stroke-dasharray="" stroke-dashoffset="0" font-family="none" font-weight="none" font-size="none" text-anchor="none" style="mix-blend-mode: normal"><g transform="scale(5.33333,5.33333)"><path d="M24,4c-4.03679,0 -7.8075,1.20118 -10.95312,3.26367c-0.46605,0.28589 -0.73965,0.80269 -0.71409,1.34885c0.02556,0.54615 0.34622,1.03515 0.83693,1.27627c0.49071,0.24112 1.07374,0.19618 1.52169,-0.1173c2.67438,-1.75351 5.86539,-2.77148 9.30859,-2.77148c9.40629,0 17,7.59371 17,17c0,2.70775 -0.63032,5.25732 -1.75195,7.52539c-0.36729,0.74267 -0.06298,1.64247 0.67969,2.00977c0.74267,0.36729 1.64247,0.06298 2.00977,-0.67969c1.32037,-2.66993 2.0625,-5.68121 2.0625,-8.85547c0,-11.02771 -8.97229,-20 -20,-20zM15.80078,13.07617c-1.328,2.126 -0.52722,4.45164 -0.07422,5.43164c-1.089,1.281 -1.72656,2.82619 -1.72656,4.49219c0,3.78 3.28055,6.93939 7.68555,7.77539c-1.309,0.673 -2.28594,1.89686 -2.58594,3.38086h-1.31641c-1.297,0 -1.80095,-0.52702 -2.50195,-1.41602c-0.692,-0.889 -1.43608,-1.48638 -2.33008,-1.73437c-0.482,-0.051 -0.80672,0.31563 -0.38672,0.64063c1.419,0.966 1.51694,2.54703 2.08594,3.58203c0.518,0.932 1.5793,1.77148 2.7793,1.77148h1.57031v3.25195c-6.95684,-2.1295 -12,-8.58685 -12,-16.25195c0,-2.6856 0.61959,-5.21657 1.72461,-7.4707c0.23099,-0.45517 0.21469,-0.99655 -0.04326,-1.437c-0.25795,-0.44045 -0.72215,-0.71952 -1.23213,-0.74073c-0.60195,-0.02485 -1.16036,0.31282 -1.41797,0.85742c-1.30098,2.65387 -2.03125,5.64261 -2.03125,8.79102c0,11.02771 8.97229,20 20,20c4.47291,0 8.61815,-1.47414 11.95117,-3.96094c0.42993,-0.3206 0.65613,-0.84623 0.5934,-1.37885c-0.06274,-0.53262 -0.40489,-0.9913 -0.89754,-1.20323c-0.49265,-0.21193 -1.06095,-0.1449 -1.49078,0.17583c-1.53862,1.14798 -3.28013,2.03012 -5.15625,2.60742v-5.10352c0,-1.908 -1.09755,-3.54533 -2.68555,-4.36133c4.405,-0.836 7.68555,-3.99539 7.68555,-7.77539c0,-1.574 -0.57659,-3.03839 -1.55859,-4.27539c0.442,-1.368 0.92981,-3.77144 -0.24219,-5.64844c-2.251,0 -3.72955,1.54663 -4.43555,2.51563c-1.162,-0.378 -2.43067,-0.5918 -3.76367,-0.5918c-1.333,0 -2.60167,0.2138 -3.76367,0.5918c-0.706,-0.969 -2.18355,-2.51562 -4.43555,-2.51562z"></path></g></g></svg>